# xmcd CD database file
#
# Track frame offsets:
#	182
#	25355
#	62567
#	95140
#	130095
#	178615
#	205095
#	227255
#
# Disc length: 3538 seconds
#
# Revision: 0
# Processed by: cddbd v1.5.1PL0 Copyright (c) Steve Scherf et al.
# Submitted via: CDex 1.51
#
DISCID=630dd008
DTITLE=Con Alma - as is
DYEAR=1900
DGENRE=Salsa
TTITLE0=T. P. Special
TTITLE1=Amazonas
TTITLE2=Maracato Atomico
TTITLE3=Sweet Potato
TTITLE4=I Can't Get Started
TTITLE5=Naima
TTITLE6=Batida Differente
TTITLE7=Manteca
EXTD=
EXTT0=
EXTT1=
EXTT2=
EXTT3=
EXTT4=
EXTT5=
EXTT6=
EXTT7=
PLAYORDER=
